<?xml version="1.0" encoding="utf-8"?>
<!-- Generator: Adobe Illustrator 18.0.0, SVG Export Plug-In . SVG Version: 6.00 Build 0)  -->
<!DOCTYPE svg PUBLIC "-//W3C//DTD SVG 1.1//EN" "http://www.w3.org/Graphics/SVG/1.1/DTD/svg11.dtd">
<svg version="1.1" id="Слой_2" xmlns="http://www.w3.org/2000/svg" xmlns:xlink="http://www.w3.org/1999/xlink" x="0px" y="0px"
	 viewBox="257 249 1076 1198.6" enable-background="new 257 249 1076 1198.6" xml:space="preserve">
<path fill="none" stroke="#000000" stroke-width="2" stroke-miterlimit="10" d="M1299.8,964.7c-41.8-28.4-103.4-14.4-145.2,8.4
	c-21.4,11.7-42.7,19.8-65.5,27.6c-11.7,4-26.1,9.2-38.1,10.5c-13.6,1.4-39.3,15.1-78.3-23.8c-8.6-8.6-14.7-21.4-17.5-32.8
	c-3-12.6-8.8-23.4-14.6-35.5c-26-54.3-16-131.3-16.8-137.1c-0.9-6.7,1.1-14,3-20.2c3.9-13.4,6.1-26.8,9.2-39.8
	c11.6-47.6,40.1-83.7,46.5-132.6c3.4-25.5,13-57.1,20.5-81.7c9.5-30.5,14.5-52.3,16.6-80.7c1.8-22.2,2.4-58-23.8-66.9
	c-24.7-8.4-50.5,4.9-58.5,28.4c-15.9,46.5-25,94.9-41.8,140.5c-8.9,23.9-22.1,46-30.1,70.3c-7.9,24.1-33.4,94.2-41.5,105.9
	c-7.4,10.8-17.4,16.4-32.1,16.4c-22.6,0-18.4-55.3-18.4-68.6c0-27.5-2.3-57.2,1.6-83.7c2-13.2,2.8-28.1,1.6-41.8
	c-1-12.1-5.5-24.6-6.7-36.8c-2.6-27-6.2-54.3-10-80.4c-3.7-25.3-4.5-51.9-6.6-78.8c-1.6-21.6-8.9-48.4-23.9-66.4
	c-20.5-24.7-63.4-5.5-66.6,9.6c-11.7,56.1,0.5,109.3,5,160.6c1.3,14-1.6,26.5-1.6,40.2c0,14.2,1.9,26.8,3,40.2
	c2.3,27.5-6.3,102.9,1.8,164.9c3,23.2-3.8,33.4-28.2,31c-11.6-1.1-14.1-20.7-16.3-27.2c-4.2-12.2-9.6-61.3-13.4-72
	c-4-11.6-6.2-23.2-10.1-34.8c-3.8-11.5-10.5-20.9-16.6-31.8c-12.7-21.8-18.3-42.5-27.2-65.3c-8.8-22.6-36.8-122.1-51.4-134.2
	c-17.3-14.2-47.6-9.7-61.1,11.7c-13.5,21.4-4.4,51.9,2.1,72.4c7.8,24.5,17,48,23.9,72c14.6,50.4,15.4,53.6,32.4,103.7
	c4,12,9.1,46.9,24.1,83.7c4.3,10.6,8.7,23.6,12.6,34.4c9.1,25.1,6.7,49.3-29.2,57.6c-24.2,5.7-44.5-19.2-57.4-34.8
	c-12.5-15.1-25-46.3-43.5-55.2c-12.2-5.8-18.5-11.1-27.6-22.3c-7.4-9.1-14.2-18.8-20.9-28.4c-14.1-20.3-31.4-37.1-46-57.4
	c-23.8-33-52.9-1.1-54.1,7.1c-6.6,47.8,32.5,91.1,35.2,95.5c3.5,6.1,6.7,7.7,13.2,10.2c-1,13.5,16,33.3,23.8,42.9
	c11.2,13.7,26.1,27,36.4,41c10.2,14,46.4,65.2,60.4,76.9c2,19.2,19.2,89.1,21.7,105.5c13,84.2,51.6,155.7,61,180
	c8.9,22.9,19.8,46.5,35.9,65.7c15.5,18.3,26.2,28.4,32.3,51.8c18.3,70.1,12.5,145.8,8.7,187.4h327.9c-9.5-42-27.6-130.8-24.3-187.2
	c10.2-3.2,91.3-67.9,111.8-77.6c20.2-9.6,43.1-15.8,59-32.6c15.5-16.5,33.8-26.8,53.4-36.8c22.4-11.3,50.9-12.1,74.5-19.3
	c22.6-6.9,48.8-28.1,71.1-35.5C1363.7,1026.2,1319.4,978.1,1299.8,964.7z"/>
</svg>
