<?xml version="1.0" encoding="UTF-8" standalone="no"?>
<!-- Created with Inkscape (http://www.inkscape.org/) -->

<svg
   xmlns:dc="http://purl.org/dc/elements/1.1/"
   xmlns:cc="http://creativecommons.org/ns#"
   xmlns:rdf="http://www.w3.org/1999/02/22-rdf-syntax-ns#"
   xmlns:svg="http://www.w3.org/2000/svg"
   xmlns="http://www.w3.org/2000/svg"
   xmlns:sodipodi="http://sodipodi.sourceforge.net/DTD/sodipodi-0.dtd"
   xmlns:inkscape="http://www.inkscape.org/namespaces/inkscape"
   sodipodi:docname="hand-nonlinear-3.svg"
   inkscape:version="0.91 r13725"
   version="1.1"
   id="svg2"
   viewBox="0 0 744.09448819 1052.3622047"
   height="297mm"
   width="210mm">
  <sodipodi:namedview
     inkscape:window-maximized="1"
     inkscape:window-y="23"
     inkscape:window-x="3200"
     inkscape:window-height="1005"
     inkscape:window-width="1680"
     showgrid="false"
     inkscape:current-layer="layer1"
     inkscape:document-units="px"
     inkscape:cy="824.66997"
     inkscape:cx="368.7817"
     inkscape:zoom="2.8284271"
     inkscape:pageshadow="2"
     inkscape:pageopacity="0.0"
     borderopacity="1.0"
     bordercolor="#666666"
     pagecolor="#ffffff"
     id="base" />
  <defs
     id="defs4">
    <marker
       inkscape:isstock="true"
       style="overflow:visible;"
       id="Arrow2Send"
       refX="0.0"
       refY="0.0"
       orient="auto"
       inkscape:stockid="Arrow2Send">
      <path
         transform="scale(0.3) rotate(180) translate(-2.3,0)"
         d="M 8.7185878,4.0337352 L -2.2072895,0.016013256 L 8.7185884,-4.0017078 C 6.9730900,-1.6296469 6.9831476,1.6157441 8.7185878,4.0337352 z "
         style="fill-rule:evenodd;stroke-width:0.625;stroke-linejoin:round;stroke:#0000ff;stroke-opacity:1;fill:#0000ff;fill-opacity:1"
         id="path4493" />
    </marker>
    <marker
       inkscape:isstock="true"
       style="overflow:visible"
       id="Arrow2Sstart"
       refX="0.0"
       refY="0.0"
       orient="auto"
       inkscape:stockid="Arrow2Sstart">
      <path
         transform="scale(0.3) translate(-2.3,0)"
         d="M 8.7185878,4.0337352 L -2.2072895,0.016013256 L 8.7185884,-4.0017078 C 6.9730900,-1.6296469 6.9831476,1.6157441 8.7185878,4.0337352 z "
         style="fill-rule:evenodd;stroke-width:0.625;stroke-linejoin:round;stroke:#000000;stroke-opacity:1;fill:#000000;fill-opacity:1"
         id="path4490" />
    </marker>
    <marker
       inkscape:isstock="true"
       style="overflow:visible;"
       id="Arrow2Mend"
       refX="0.0"
       refY="0.0"
       orient="auto"
       inkscape:stockid="Arrow2Mend">
      <path
         transform="scale(0.6) rotate(180) translate(0,0)"
         d="M 8.7185878,4.0337352 L -2.2072895,0.016013256 L 8.7185884,-4.0017078 C 6.9730900,-1.6296469 6.9831476,1.6157441 8.7185878,4.0337352 z "
         style="fill-rule:evenodd;stroke-width:0.625;stroke-linejoin:round;stroke:#000000;stroke-opacity:1;fill:#000000;fill-opacity:1"
         id="path4487" />
    </marker>
    <marker
       inkscape:isstock="true"
       style="overflow:visible"
       id="EmptyTriangleOutM"
       refX="0.0"
       refY="0.0"
       orient="auto"
       inkscape:stockid="EmptyTriangleOutM">
      <path
         transform="scale(0.4) translate(-4.5,0)"
         style="fill-rule:evenodd;fill:#ffffff;stroke:#000000;stroke-width:1pt;stroke-opacity:1"
         d="M 5.77,0.0 L -2.88,5.0 L -2.88,-5.0 L 5.77,0.0 z "
         id="path4623" />
    </marker>
    <marker
       inkscape:isstock="true"
       style="overflow:visible"
       id="StopL"
       refX="0.0"
       refY="0.0"
       orient="auto"
       inkscape:stockid="StopL">
      <path
         transform="scale(0.8)"
         style="fill:none;fill-opacity:0.75;fill-rule:evenodd;stroke:#000000;stroke-width:1pt;stroke-opacity:1"
         d="M 0.0,5.65 L 0.0,-5.65"
         id="path4629" />
    </marker>
    <marker
       inkscape:isstock="true"
       style="overflow:visible"
       id="TriangleOutS"
       refX="0.0"
       refY="0.0"
       orient="auto"
       inkscape:stockid="TriangleOutS">
      <path
         transform="scale(0.2)"
         style="fill-rule:evenodd;stroke:#000000;stroke-width:1pt;stroke-opacity:1;fill:#000000;fill-opacity:1"
         d="M 5.77,0.0 L -2.88,5.0 L -2.88,-5.0 L 5.77,0.0 z "
         id="path4608" />
    </marker>
    <marker
       inkscape:isstock="true"
       style="overflow:visible"
       id="DiamondSstart"
       refX="0.0"
       refY="0.0"
       orient="auto"
       inkscape:stockid="DiamondSstart">
      <path
         transform="scale(0.2) translate(6,0)"
         style="fill-rule:evenodd;stroke:#000000;stroke-width:1pt;stroke-opacity:1;fill:#000000;fill-opacity:1"
         d="M 0,-7.0710768 L -7.0710894,0 L 0,7.0710589 L 7.0710462,0 L 0,-7.0710768 z "
         id="path4554" />
    </marker>
    <marker
       inkscape:isstock="true"
       style="overflow:visible"
       id="Arrow1Mstart"
       refX="0.0"
       refY="0.0"
       orient="auto"
       inkscape:stockid="Arrow1Mstart">
      <path
         transform="scale(0.4) translate(10,0)"
         style="fill-rule:evenodd;stroke:#000000;stroke-width:1pt;stroke-opacity:1;fill:#000000;fill-opacity:1"
         d="M 0.0,0.0 L 5.0,-5.0 L -12.5,0.0 L 5.0,5.0 L 0.0,0.0 z "
         id="path4466" />
    </marker>
  </defs>
  <metadata
     id="metadata7">
    <rdf:RDF>
      <cc:Work
         rdf:about="">
        <dc:format>image/svg+xml</dc:format>
        <dc:type
           rdf:resource="http://purl.org/dc/dcmitype/StillImage" />
        <dc:title></dc:title>
      </cc:Work>
    </rdf:RDF>
  </metadata>
  <g
     id="layer1"
     inkscape:groupmode="layer"
     inkscape:label="Layer 1">
    <path
       sodipodi:nodetypes="ccccccccccccccccccssccccccccscccccccccsccccccccccccccccccccccccccccc"
       style="fill:none;stroke:#000000;stroke-width:0.25170189;stroke-miterlimit:10"
       inkscape:connector-curvature="0"
       stroke-miterlimit="10"
       d="M352.366646787 273.359368729C347.106086787 269.785198729 344.724522449 271.382453193 339.463952449 274.251843193C336.770742449 275.724303193 331.488004535 278.489276941 328.618604535 279.470916941C327.146144535 279.974326941 327.027445658 280.017884824 325.517235658 280.181494824C323.805665658 280.357684824 318.918324448 282.690749829 314.010134448 277.795139829C312.927814448 276.712829829 312.843718603 269.228932891 312.491338603 267.794222891C312.113788603 266.208502891 311.673265343 270.502705948 310.943335343 268.979905948C307.671205343 262.146205948 305.705881418 247.523785827 305.605201418 246.793845827C305.491931418 245.950645827 309.684335583 249.545983071 309.923445583 248.765703071C310.414265583 247.079303071 305.947241903 242.227175549 306.337381903 240.591115549C307.797251903 234.600605549 311.464583704 229.810803517 312.270033704 223.656693517C312.697923704 220.447493517 313.831436713 216.69628474 314.775316713 213.60035474C315.970906713 209.76189474 318.189547789 210.553594664 318.453837789 206.979434664C318.680367789 204.185544664 319.290112672 194.071225758 315.992822672 192.951155758C312.884302672 191.894005758 312.386410196 198.715553698 311.379600196 201.673043698C309.378580196 207.525123698 309.242878868 211.450208355 307.128588868 217.189008355C306.008518868 220.196848355 302.244295666 220.03566678 301.237485666 223.09384678C300.243265666 226.12684678 299.022666022 236.987896244 298.003276022 238.460356244C297.071976022 239.819546244 289.933656356 241.517177907 288.083636356 241.517177907C285.239406356 241.517177907 286.473366966 236.327104463 286.473366966 234.653284463C286.473366966 231.192384463 288.590356607 228.514184127 289.081176607 225.179124127C289.332876607 223.517894127 288.8879191 215.675830735 288.7368991 213.951670735C288.6110491 212.428870735 287.656456092 210.938382786 287.505436092 209.402992786C287.178226092 206.005022786 290.056636587 203.819024449 289.578396587 200.534304449C289.112746587 197.350284449 285.373510971 192.858116581 285.109220971 189.472726581C284.907860971 186.754346581 284.330028363 183.26698739 282.442268363 181.00166739C279.862318363 177.89314739 274.66768682 180.261795832 274.26495682 182.162145832C272.79250682 189.222385832 274.147404785 201.763457882 274.713764785 208.219607882C274.877374785 209.981527882 273.282100349 210.897463381 273.282100349 212.621623381C273.282100349 214.408703381 277.882336858 211.911615587 278.020776858 213.598015587C278.310236858 217.058925587 276.916740129 230.56673878 277.936130129 238.36948878C278.313680129 241.28923878 277.691077637 242.326247861 274.620317637 242.024207861C273.160447637 241.885767861 269.508581629 234.672396932 269.231701629 233.854366932C268.703131629 232.318986932 272.052672576 228.653578909 271.574432576 227.306968909C271.071032576 225.847098909 264.964741377 223.73193878 264.473931377 222.27206878C263.995691377 220.82477878 263.187672781 221.648677753 262.419982781 220.276897753C260.821672781 217.533347753 260.046890504 213.032329458 258.926820504 210.162919458C257.819320504 207.318689458 258.948195889 193.219815365 257.110775889 191.697025365C254.933555889 189.909935365 246.365037523 193.226903 244.666047523 195.920103C242.967067523 198.613313 250.085567309 202.345404617 250.903597309 204.925344617C251.885237309 208.008694617 248.851263428 213.490996522 249.719633428 216.511416522C251.557053428 222.854306522 249.925631008 221.141131922 252.065091008 227.446261922C252.568501008 228.956471922 257.889101784 230.275855571 259.776861784 234.907165571C260.318011784 236.241185571 256.23213208 239.523195477 256.72295208 240.882395477C257.86819208 244.041255477 262.389324495 245.58337158 257.871274495 246.62793158C254.825684495 247.34529158 247.663187817 247.861033059 246.039717817 245.897753059C244.466577817 243.997403059 245.796313918 241.709751279 243.468073918 240.589681279C241.932693918 239.859741279 238.227297047 234.867843976 237.082047047 233.458313976C236.150757047 232.313073976 236.017268753 230.158869805 235.174068753 228.950699805C233.399568753 226.395929805 236.140144698 226.017720026 234.302724698 223.462940026C231.307464698 219.309860026 227.26393358 222.309948793 227.11291358 223.341938793C226.28230358 229.357608793 227.447699063 233.595720112 227.787499063 234.149470112C228.227969063 234.917150112 232.784409077 237.450050684 233.602439077 237.764670684C233.476589077 239.463670684 230.789379551 244.736715651 231.771019551 245.944875651C233.180549551 247.669035651 235.048664303 244.635969596 236.344924303 246.397879596C237.628614303 248.159789596 246.454620801 255.1623344 248.216530801 256.6347944C248.468230801 259.0511344 245.736126205 267.967279544 246.050756205 270.031229544C247.686816205 280.627879544 257.712805923 292.651642771 258.895795923 295.709832771C260.015875923 298.591812771 256.87417222 295.836296665 258.90037222 298.252636665C259.71464222 301.439596665 264.948968562 302.642261365 266.853078562 304.955821365C281.306458562 317.144901365 293.825290507 313.362553987 306.731240507 305.720453987C308.014930507 305.317723987 312.639065048 300.110064734 315.219005048 298.889304734C317.761195048 297.681144734 326.555780416 297.921231196 328.556810416 295.806931196C330.507500416 293.730391196 332.853498078 291.907246838 335.320178078 290.648736838C338.139238078 289.226626838 341.597887811 290.014238113 344.567967811 289.108118113C347.412197811 288.239738113 344.945469464 285.501149334 347.751939464 284.569859334C360.160849464 280.479709334 355.527584828 275.908865785 353.060904828 274.222465785C353.060904828 274.222465785 354.145560309 274.815266632 354.145560309 274.815266632"
       id="path4247" />
  </g>
</svg>
