<?xml version="1.0" encoding="UTF-8" standalone="no"?>
<!-- Generator: Adobe Illustrator 18.0.0, SVG Export Plug-In . SVG Version: 6.00 Build 0)  -->

<svg
   xmlns:dc="http://purl.org/dc/elements/1.1/"
   xmlns:cc="http://creativecommons.org/ns#"
   xmlns:rdf="http://www.w3.org/1999/02/22-rdf-syntax-ns#"
   xmlns:svg="http://www.w3.org/2000/svg"
   xmlns="http://www.w3.org/2000/svg"
   xmlns:sodipodi="http://sodipodi.sourceforge.net/DTD/sodipodi-0.dtd"
   xmlns:inkscape="http://www.inkscape.org/namespaces/inkscape"
   version="1.1"
   id="Слой_2"
   x="0px"
   y="0px"
   viewBox="257 249 1076 1198.6"
   enable-background="new 257 249 1076 1198.6"
   xml:space="preserve"
   sodipodi:docname="hand-straight-outline.svg"
   inkscape:version="0.92.2 2405546, 2018-03-11"><metadata
   id="metadata9"><rdf:RDF><cc:Work
       rdf:about=""><dc:format>image/svg+xml</dc:format><dc:type
         rdf:resource="http://purl.org/dc/dcmitype/StillImage" /></cc:Work></rdf:RDF></metadata><defs
   id="defs7"><marker
     inkscape:isstock="true"
     style="overflow:visible;"
     id="Arrow2Send"
     refX="0.0"
     refY="0.0"
     orient="auto"
     inkscape:stockid="Arrow2Send"><path
       transform="scale(0.3) rotate(180) translate(-2.3,0)"
       d="M 8.7185878,4.0337352 L -2.2072895,0.016013256 L 8.7185884,-4.0017078 C 6.9730900,-1.6296469 6.9831476,1.6157441 8.7185878,4.0337352 z "
       style="fill-rule:evenodd;stroke-width:0.625;stroke-linejoin:round;stroke:#0000ff;stroke-opacity:1;fill:#0000ff;fill-opacity:1"
       id="path4493" /></marker><marker
     inkscape:isstock="true"
     style="overflow:visible"
     id="Arrow2Sstart"
     refX="0.0"
     refY="0.0"
     orient="auto"
     inkscape:stockid="Arrow2Sstart"><path
       transform="scale(0.3) translate(-2.3,0)"
       d="M 8.7185878,4.0337352 L -2.2072895,0.016013256 L 8.7185884,-4.0017078 C 6.9730900,-1.6296469 6.9831476,1.6157441 8.7185878,4.0337352 z "
       style="fill-rule:evenodd;stroke-width:0.625;stroke-linejoin:round;stroke:#000000;stroke-opacity:1;fill:#000000;fill-opacity:1"
       id="path4490" /></marker><marker
     inkscape:isstock="true"
     style="overflow:visible;"
     id="Arrow2Mend"
     refX="0.0"
     refY="0.0"
     orient="auto"
     inkscape:stockid="Arrow2Mend"><path
       transform="scale(0.6) rotate(180) translate(0,0)"
       d="M 8.7185878,4.0337352 L -2.2072895,0.016013256 L 8.7185884,-4.0017078 C 6.9730900,-1.6296469 6.9831476,1.6157441 8.7185878,4.0337352 z "
       style="fill-rule:evenodd;stroke-width:0.625;stroke-linejoin:round;stroke:#000000;stroke-opacity:1;fill:#000000;fill-opacity:1"
       id="path4487" /></marker><marker
     inkscape:isstock="true"
     style="overflow:visible"
     id="EmptyTriangleOutM"
     refX="0.0"
     refY="0.0"
     orient="auto"
     inkscape:stockid="EmptyTriangleOutM"><path
       transform="scale(0.4) translate(-4.5,0)"
       style="fill-rule:evenodd;fill:#ffffff;stroke:#000000;stroke-width:1pt;stroke-opacity:1"
       d="M 5.77,0.0 L -2.88,5.0 L -2.88,-5.0 L 5.77,0.0 z "
       id="path4623" /></marker><marker
     inkscape:isstock="true"
     style="overflow:visible"
     id="StopL"
     refX="0.0"
     refY="0.0"
     orient="auto"
     inkscape:stockid="StopL"><path
       transform="scale(0.8)"
       style="fill:none;fill-opacity:0.75;fill-rule:evenodd;stroke:#000000;stroke-width:1pt;stroke-opacity:1"
       d="M 0.0,5.65 L 0.0,-5.65"
       id="path4629" /></marker><marker
     inkscape:isstock="true"
     style="overflow:visible"
     id="TriangleOutS"
     refX="0.0"
     refY="0.0"
     orient="auto"
     inkscape:stockid="TriangleOutS"><path
       transform="scale(0.2)"
       style="fill-rule:evenodd;stroke:#000000;stroke-width:1pt;stroke-opacity:1;fill:#000000;fill-opacity:1"
       d="M 5.77,0.0 L -2.88,5.0 L -2.88,-5.0 L 5.77,0.0 z "
       id="path4608" /></marker><marker
     inkscape:isstock="true"
     style="overflow:visible"
     id="DiamondSstart"
     refX="0.0"
     refY="0.0"
     orient="auto"
     inkscape:stockid="DiamondSstart"><path
       transform="scale(0.2) translate(6,0)"
       style="fill-rule:evenodd;stroke:#000000;stroke-width:1pt;stroke-opacity:1;fill:#000000;fill-opacity:1"
       d="M 0,-7.0710768 L -7.0710894,0 L 0,7.0710589 L 7.0710462,0 L 0,-7.0710768 z "
       id="path4554" /></marker><marker
     inkscape:isstock="true"
     style="overflow:visible"
     id="Arrow1Mstart"
     refX="0.0"
     refY="0.0"
     orient="auto"
     inkscape:stockid="Arrow1Mstart"><path
       transform="scale(0.4) translate(10,0)"
       style="fill-rule:evenodd;stroke:#000000;stroke-width:1pt;stroke-opacity:1;fill:#000000;fill-opacity:1"
       d="M 0.0,0.0 L 5.0,-5.0 L -12.5,0.0 L 5.0,5.0 L 0.0,0.0 z "
       id="path4466" /></marker></defs><sodipodi:namedview
   pagecolor="#ffffff"
   bordercolor="#666666"
   borderopacity="1"
   objecttolerance="10"
   gridtolerance="10"
   guidetolerance="10"
   inkscape:pageopacity="0"
   inkscape:pageshadow="2"
   inkscape:window-width="1299"
   inkscape:window-height="828"
   id="namedview5"
   showgrid="false"
   inkscape:zoom="1.1138141"
   inkscape:cx="538"
   inkscape:cy="433.3362"
   inkscape:window-x="3525"
   inkscape:window-y="165"
   inkscape:window-maximized="0"
   inkscape:current-layer="Слой_2" />
<path
   stroke-miterlimit="10"
   d="m 881.12909,958.67065 c -6.1011,-4.1453 -15.0922,-2.1018 -21.1933,1.226 -3.1235,1.70775 -6.2325,2.88995 -9.5603,4.02845 -1.7078,0.5839 -3.8096,1.3429 -5.5611,1.5326 -1.985,0.2043 -5.7362,2.204 -11.4286,-3.4738 -1.2553,-1.2553 -2.1456,-3.12355 -2.5543,-4.78745 -0.4379,-1.8391 -1.2844,-3.4154 -2.131,-5.1816 -3.795,-7.9256 -2.3354,-19.1644 -2.4521,-20.011 -0.1314,-0.9779 0.1605,-2.0434 0.4379,-2.9484 0.5692,-1.9558 0.8903,-3.9117 1.3428,-5.8092 1.6931,-6.9476 5.8529,-12.2168 6.7871,-19.3542 0.4963,-3.7219 1.8975,-8.3342 2.9922,-11.9249 1.3866,-4.4517 2.1164,-7.6336 2.4229,-11.7789 0.2627,-3.2403 0.3503,-8.4656 -3.4739,-9.7647 -3.6051,-1.226 -7.3709,0.7152 -8.5386,4.1453 -2.3207,6.7871 -3.649,13.8515 -6.1011,20.5073 -1.299,3.4884 -3.2257,6.7141 -4.3934,10.2609 -1.153,3.5177 -4.875,13.7494 -6.0573,15.4571 -1.0801,1.5764 -2.5397,2.3938 -4.6853,2.3938 -3.2986,0 -2.6856,-8.0716 -2.6856,-10.0129 0,-4.0138 -0.3357,-8.3488 0.2335,-12.2168 0.2919,-1.9266 0.4087,-4.1014 0.2336,-6.1011 -0.146,-1.7661 -0.8028,-3.5906 -0.978,-5.3713 -0.3795,-3.9409 -0.9049,-7.9256 -1.4596,-11.7351 -0.54,-3.6928 -0.6568,-7.5753 -0.9633,-11.5016 -0.2335,-3.1527 -1.299,-7.0644 -3.4884,-9.6917 -2.9922,-3.6052 -9.2539,-0.8028 -9.7209,1.4012 -1.7078,8.1883 0.073,15.9534 0.7298,23.4411 0.1897,2.0434 -0.2336,3.8679 -0.2336,5.8676 0,2.0726 0.2774,3.9117 0.4379,5.8675 0.3357,4.0139 -0.9195,15.0192 0.2627,24.0687 0.4379,3.3863 -0.5546,4.8751 -4.116,4.5248 -1.6931,-0.1606 -2.058,-3.0214 -2.3792,-3.9701 -0.613,-1.7807 -1.4012,-8.9473 -1.9558,-10.5091 -0.5838,-1.6931 -0.905,-3.3863 -1.4742,-5.0794 -0.5546,-1.6785 -1.5326,-3.0505 -2.4229,-4.6415 -1.8537,-3.1819 -2.6711,-6.2033 -3.9701,-9.5311 -1.2845,-3.2987 -5.3713,-17.8217 -7.5023,-19.5878 -2.5251,-2.0726 -6.9477,-1.4158 -8.9182,1.7077 -1.9704,3.1236 -0.6422,7.5753 0.3066,10.5675 1.1384,3.576 2.4813,7.006 3.4884,10.5091 2.131,7.3563 2.2478,7.8234 4.7291,15.136 0.5838,1.7515 1.3282,6.8454 3.5176,12.2168 0.6276,1.5471 1.2698,3.4446 1.8391,5.021 1.3282,3.6635 0.9779,7.1958 -4.262,8.4072 -3.5322,0.832 -6.4952,-2.8024 -8.3781,-5.0794 -1.8245,-2.204 -3.649,-6.7579 -6.3492,-8.0569 -1.7807,-0.8466 -2.7003,-1.6202 -4.0285,-3.2549 -1.0801,-1.3283 -2.0726,-2.7441 -3.0506,-4.1453 -2.058,-2.9629 -4.5831,-5.4151 -6.7141,-8.378 -3.4738,-4.8167 -7.7212,-0.1606 -7.8964,1.0363 -0.9633,6.9768 4.7437,13.2969 5.1378,13.9391 0.5108,0.8903 0.9779,1.1239 1.9266,1.4888 -0.1459,1.9704 2.3354,4.8604 3.4739,6.2616 1.6347,1.9997 3.8095,3.9409 5.3129,5.9844 1.4888,2.0434 6.7725,9.5165 8.8159,11.2243 0.292,2.8024 2.8025,13.0049 3.1674,15.3987 1.8974,12.28965 7.5315,22.72575 8.9035,26.27265 1.299,3.3424 2.89,6.7871 5.2399,9.5895 2.2624,2.671 2.07836,2.30391 4.7145,5.5607 14.03736,12.879 29.1094,11.0373 45.5831,0.029 1.4888,-0.4671 13.3261,-7.9107 16.3183,-9.3265 2.9484,-1.4012 6.2908,-2.3061 8.6116,-4.7582 2.2624,-2.4084 4.9334,-3.9118 7.7942,-5.3714 3.2695,-1.6493 7.4294,-1.7661 10.874,-2.817 3.2987,-1.0071 7.1228,-4.1014 10.3777,-5.1815 14.3916,-4.7437 7.9256,-11.7644 5.0648,-13.72015 z"
   id="path2"
   inkscape:connector-curvature="0"
   style="fill:none;stroke:#000000;stroke-width:0.29191878;stroke-miterlimit:10"
   sodipodi:nodetypes="ccccccccccccccccccssccccccccscccccccccsccccccccccccccccccccccccccccc" />
</svg>